<?xml version="1.0" standalone="no"?>
<!DOCTYPE svg PUBLIC "-//W3C//DTD SVG 20010904//EN"
 "http://www.w3.org/TR/2001/REC-SVG-20010904/DTD/svg10.dtd">
<svg version="1.0" xmlns="http://www.w3.org/2000/svg"
 width="958.000000pt" height="959.000000pt" viewBox="0 0 958.000000 959.000000"
 preserveAspectRatio="xMidYMid meet">

<g transform="translate(0.000000,959.000000) scale(0.100000,-0.100000)"
fill="#000000" stroke="none">
<path d="M3870 9523 c0 -15 -36 -17 -45 -3 -8 14 -65 13 -65 -1 0 -7 -9 -9
-22 -6 -12 3 -30 1 -41 -5 -11 -5 -17 -6 -14 -1 4 6 -20 9 -58 9 -42 -1 -65
-5 -65 -13 0 -6 6 -14 13 -16 7 -3 5 -6 -5 -6 -20 -1 -24 -17 -6 -23 7 -3 8
-9 3 -18 -5 -7 -9 -113 -10 -234 -1 -122 -5 -229 -9 -238 -4 -9 -4 -23 0 -29
5 -9 10 -7 16 7 6 13 7 10 2 -11 -10 -55 -6 -418 6 -450 4 -11 2 -28 -4 -37
-8 -14 -7 -23 2 -39 9 -14 10 -24 3 -33 -7 -8 -10 -113 -8 -297 l2 -284 22 -3
c25 -4 21 -32 -4 -32 -13 0 -14 -7 -8 -37 9 -50 7 -87 -5 -91 -14 -5 -13 -29
2 -34 7 -3 8 -9 3 -19 -11 -16 -7 -49 6 -65 6 -8 4 -17 -6 -27 -26 -26 -18
-36 26 -31 23 3 49 2 58 -2 23 -9 154 -4 166 7 17 17 57 10 62 -11 4 -15 14
-20 39 -20 18 0 36 -5 39 -10 4 -6 12 -7 18 -3 7 4 26 8 42 8 27 0 30 3 27 29
-3 30 -23 56 -41 56 -6 0 -11 13 -11 29 0 17 -5 33 -10 36 -17 10 -2 24 20 18
15 -4 20 -14 20 -42 0 -38 14 -61 37 -61 7 0 13 10 13 22 0 17 3 19 12 10 8
-8 9 -18 1 -35 -13 -28 4 -57 35 -57 30 0 53 -11 46 -22 -4 -6 -9 -6 -14 2 -4
6 -22 10 -41 8 -28 -3 -31 -5 -14 -12 11 -4 30 -12 41 -18 12 -6 31 -7 43 -3
14 4 23 1 27 -9 7 -19 40 -30 80 -27 21 1 33 -3 37 -13 5 -12 21 -16 69 -16
54 0 60 -2 43 -13 -17 -13 -16 -15 16 -26 25 -9 30 -14 20 -20 -8 -5 -11 -16
-8 -26 6 -14 10 -13 31 9 24 27 46 34 46 16 0 -5 7 -10 16 -10 13 0 14 -3 4
-14 -6 -8 -18 -12 -26 -9 -8 3 -14 0 -14 -6 0 -6 8 -11 18 -11 10 0 28 -13 40
-30 13 -16 28 -30 35 -30 7 0 18 -10 26 -22 12 -19 14 -20 23 -5 12 22 36 22
60 0 18 -16 21 -16 47 0 21 13 41 15 75 11 37 -6 46 -4 46 8 0 12 16 17 68 20
37 3 74 0 83 -5 9 -6 25 -7 35 -3 16 6 16 9 4 17 -12 9 -11 10 5 4 10 -3 38
-9 61 -12 35 -4 43 -2 46 12 3 15 7 14 31 -9 31 -28 47 -33 47 -13 0 12 30 13
145 3 22 -1 53 -3 69 -4 21 -2 27 -6 22 -18 -6 -14 1 -16 54 -11 57 4 86 -4
58 -17 -7 -3 -2 -4 12 -1 18 3 29 -2 38 -16 10 -16 20 -19 38 -15 18 5 37 -2
70 -24 33 -22 52 -28 70 -24 14 4 24 2 24 -5 0 -6 6 -10 12 -9 7 2 14 -7 16
-19 2 -15 19 -28 57 -45 36 -15 55 -29 55 -40 0 -10 5 -19 10 -19 6 -1 15 -3
20 -4 6 -1 15 -3 20 -4 6 0 10 -10 10 -20 0 -11 9 -26 21 -34 11 -8 28 -30 38
-48 17 -31 23 -34 62 -33 24 0 51 3 59 5 8 3 12 4 8 2 -16 -9 -7 -21 24 -32
27 -10 35 -9 44 4 13 18 177 30 204 15 11 -6 24 -4 39 6 20 15 24 14 41 -1 13
-12 19 -13 22 -4 2 7 21 13 43 13 21 1 40 7 43 14 2 7 10 12 18 12 8 0 14 5
14 10 0 6 -9 10 -21 10 -11 0 -18 4 -15 9 3 5 15 7 26 4 23 -6 24 -4 10 32 -5
14 -14 24 -19 20 -14 -8 -58 36 -66 65 -7 24 -7 24 9 5 15 -20 15 -20 16 1 0
11 -11 31 -25 44 -14 13 -25 18 -25 11 0 -9 -5 -9 -20 -1 -11 6 -20 17 -20 25
0 8 -4 15 -10 15 -5 0 -10 11 -10 25 0 18 -8 29 -27 38 -16 6 -31 16 -35 22
-3 5 -16 21 -27 34 -12 13 -21 30 -21 38 0 7 -7 13 -15 13 -8 0 -15 4 -15 9 0
13 -73 86 -83 83 -5 -1 -14 11 -20 27 -11 30 -36 43 -96 49 -7 1 -11 8 -7 17
7 18 -5 20 -23 3 -11 -11 -13 -10 -8 5 5 13 0 21 -21 30 -16 7 -27 17 -25 23
2 6 -19 23 -46 38 -28 15 -64 40 -80 56 -16 17 -40 30 -53 30 -40 0 -69 12
-64 26 6 15 -52 54 -82 54 -11 0 -22 3 -24 8 -6 14 -67 42 -81 37 -21 -8 -43
32 -49 89 -4 30 -2 43 3 35 6 -10 9 -8 9 9 0 12 -5 22 -12 22 -6 0 -4 8 6 19
11 12 19 42 22 81 3 34 11 72 18 84 10 15 12 36 7 74 -5 36 -4 56 4 62 7 5 15
7 18 3 11 -10 8 16 -3 38 -6 10 -7 19 -3 19 13 0 9 68 -5 82 -14 14 -16 54 -2
63 6 4 10 -6 10 -24 0 -16 5 -33 11 -37 9 -5 9 4 3 32 -4 21 -7 56 -6 77 1 21
-2 36 -7 33 -5 -3 -6 16 -3 42 3 26 9 49 13 50 15 6 10 23 -5 20 -8 -2 -15 2
-15 7 0 6 7 9 15 7 8 -2 14 5 14 18 0 11 -5 20 -11 20 -7 0 -9 12 -5 35 5 26
3 35 -7 35 -7 0 -22 7 -33 15 -19 14 -19 14 2 9 19 -5 20 -2 17 52 -2 32 -9
64 -15 72 -7 8 -13 21 -14 29 -4 28 -34 81 -49 87 -8 3 -15 9 -14 13 3 20 -15
52 -32 56 -12 3 -17 11 -13 20 3 10 -3 20 -15 27 -12 6 -21 17 -21 24 0 20
-30 41 -54 39 -15 -1 -16 0 -3 3 15 5 12 12 -19 50 -20 24 -43 44 -51 44 -8 0
-23 10 -33 23 -10 12 -44 35 -76 52 -33 16 -61 32 -64 35 -15 17 -102 60 -120
60 -12 0 -34 6 -48 14 -40 21 -171 55 -224 58 -27 2 -48 6 -48 10 0 9 -90 29
-125 27 -16 0 -52 1 -80 5 -91 10 -281 15 -255 6 24 -8 23 -8 -8 -9 -21 -1
-31 3 -30 12 4 15 -230 20 -249 5 -7 -6 -21 -7 -30 -2 -31 13 -183 11 -183 -3z
m560 -503 c30 -6 47 -5 52 3 5 8 11 7 21 -1 9 -8 29 -10 55 -6 28 4 46 2 65
-10 15 -11 34 -15 49 -11 16 4 29 1 37 -9 7 -8 34 -18 59 -22 26 -3 52 -11 59
-16 7 -5 22 -11 35 -12 36 -4 68 -17 68 -26 0 -5 15 -15 33 -23 115 -51 153
-71 160 -83 4 -8 15 -14 24 -14 13 0 14 -2 2 -17 -12 -15 -12 -16 4 -10 10 4
17 2 17 -5 0 -6 15 -25 34 -42 18 -18 37 -43 41 -57 4 -13 21 -39 36 -57 16
-18 29 -38 29 -45 0 -7 11 -34 25 -61 13 -27 25 -58 25 -70 0 -11 2 -37 5 -56
3 -19 7 -49 8 -67 1 -17 5 -34 9 -38 4 -4 0 -18 -9 -32 -10 -14 -16 -43 -15
-71 1 -48 -1 -56 -59 -177 -18 -38 -33 -72 -34 -75 -7 -32 -18 -48 -31 -43 -8
3 -14 -1 -14 -11 0 -9 -4 -16 -10 -16 -5 0 -10 -9 -10 -21 0 -12 -4 -17 -11
-14 -6 4 -13 -2 -16 -14 -3 -12 -10 -21 -15 -21 -5 0 -6 5 -3 11 4 6 -2 5 -14
-3 -12 -7 -21 -16 -21 -20 0 -5 -18 -16 -40 -25 -22 -10 -40 -24 -40 -32 0
-11 -3 -11 -16 0 -14 11 -18 10 -30 -5 -18 -25 -58 -45 -105 -50 -57 -7 -66
-16 -38 -37 13 -10 19 -19 12 -19 -6 0 -15 5 -18 10 -4 6 -15 8 -25 5 -11 -3
-28 -1 -40 5 -16 8 -25 7 -43 -5 l-22 -17 23 7 c16 5 22 2 22 -9 0 -23 -59
-20 -90 4 -27 21 -50 26 -50 11 0 -5 6 -12 13 -15 6 -4 1 -3 -13 0 -63 16 -91
16 -90 3 5 -36 0 -39 -76 -39 -41 0 -84 5 -95 10 -17 10 -18 9 -7 -15 8 -18
16 -24 27 -19 25 11 81 13 87 2 3 -5 11 -5 19 2 8 6 24 10 37 8 19 -2 23 -8
20 -34 -2 -24 2 -33 17 -37 18 -4 19 -8 8 -30 -14 -30 -27 -26 -27 9 0 17 -5
24 -20 24 -13 0 -20 7 -20 20 0 11 -4 20 -10 20 -5 0 -10 -9 -10 -20 0 -11 5
-20 10 -20 6 0 10 -9 10 -20 0 -11 -2 -20 -4 -20 -2 0 -12 -3 -20 -6 -12 -4
-15 -2 -10 9 6 18 -14 31 -65 42 -32 7 -42 12 -75 42 -20 18 -88 -6 -82 -29 2
-10 0 -18 -5 -18 -5 0 -9 9 -9 21 0 18 -4 20 -27 15 -23 -5 -25 -4 -10 4 34
21 15 50 -34 50 -10 0 -19 -4 -19 -9 0 -16 -28 -20 -34 -4 -4 9 1 17 14 20 24
6 27 23 4 23 -10 0 -14 6 -10 15 3 8 1 15 -5 15 -7 0 -9 10 -5 25 4 14 2 25
-4 25 -5 0 -10 7 -10 15 0 8 -6 15 -14 15 -17 0 -39 57 -25 65 5 4 9 1 9 -4 0
-6 7 -11 15 -11 10 0 15 10 14 33 -1 18 -3 24 -6 14 -5 -18 -6 -18 -24 -1 -26
24 -24 34 7 34 27 0 27 0 21 66 -3 46 -10 69 -22 78 -16 11 -16 14 -1 28 18
18 21 54 6 63 -14 9 -12 53 2 57 7 3 11 18 10 36 -1 17 2 33 8 37 5 3 10 13
10 21 0 8 -4 13 -9 9 -6 -3 -6 7 0 27 12 43 12 68 0 50 -7 -11 -9 -11 -14 1
-3 7 -1 20 4 28 12 19 11 42 -1 34 -13 -8 -13 8 0 21 8 8 6 15 -5 24 -19 15
-19 27 -1 45 9 10 13 41 11 116 -2 91 -4 104 -24 120 -11 9 -16 19 -11 21 6 2
15 21 20 43 7 30 6 43 -6 56 -20 22 -18 32 7 26 24 -6 38 18 20 36 -17 17 -12
48 18 97 l27 45 74 7 c40 4 75 10 78 13 5 4 65 -2 142 -15z m1195 -20 c3 -6
-1 -7 -9 -4 -18 7 -21 14 -7 14 6 0 13 -4 16 -10z m62 -262 c-3 -8 -6 -5 -6 6
-1 11 2 17 5 13 3 -3 4 -12 1 -19z m-2003 -743 c6 -17 -2 -45 -13 -45 -11 0
-31 47 -24 54 11 11 31 6 37 -9z m223 -1 c-3 -3 -12 -4 -19 -1 -8 3 -5 6 6 6
11 1 17 -2 13 -5z m13 -180 c0 -23 -5 -34 -14 -34 -22 0 -28 16 -20 55 5 29 9
33 20 24 8 -6 14 -27 14 -45z m-189 -16 c18 -34 31 -39 56 -23 29 20 33 19 33
-5 0 -13 -7 -20 -20 -20 -11 0 -20 -4 -20 -10 0 -5 -15 -10 -34 -10 -25 0 -35
5 -39 20 -5 21 -27 28 -27 9 0 -5 -4 -7 -10 -4 -15 10 20 64 42 65 4 0 13 -10
19 -22z m289 -52 c0 -3 -4 -8 -10 -11 -5 -3 -10 -1 -10 4 0 6 5 11 10 11 6 0
10 -2 10 -4z m-180 -50 c0 -7 -11 -16 -25 -18 -26 -5 -36 16 -12 25 23 10 37
7 37 -7z m-125 -16 c3 -5 -3 -10 -14 -10 -12 0 -21 -5 -21 -11 0 -8 -5 -8 -15
1 -8 7 -15 16 -15 21 0 12 57 11 65 -1z m312 -16 c-3 -3 -12 -4 -19 -1 -8 3
-5 6 6 6 11 1 17 -2 13 -5z m893 -45 c0 -5 -10 -9 -21 -9 -18 0 -19 2 -9 15
12 15 30 12 30 -6z m66 -37 c-7 -1 -23 2 -37 7 -15 6 -18 10 -7 10 12 1 15 7
10 24 -5 19 -3 19 21 -8 16 -19 21 -31 13 -33z m-1088 28 c23 0 100 -65 89
-76 -4 -4 -21 0 -36 9 -16 9 -36 17 -45 17 -9 0 -19 7 -22 15 -4 10 -13 13
-25 10 -15 -5 -19 -1 -19 20 0 22 3 24 19 15 11 -5 28 -10 39 -10z m36 -105
c-7 -16 -30 -20 -38 -6 -7 11 4 21 25 21 12 0 16 -5 13 -15z m52 -18 c9 -20 7
-23 -14 -25 -18 -1 -23 2 -18 14 3 9 6 20 6 25 0 17 15 9 26 -14z m694 -19 c0
-13 -36 -9 -49 5 -6 8 -8 17 -5 20 8 7 54 -14 54 -25z m-349 -50 c-13 -4 -27
-5 -33 -2 -16 10 11 22 35 16 20 -5 20 -5 -2 -14z m123 -34 c23 -9 19 -24 -6
-25 -22 -1 -22 -1 2 -9 22 -7 21 -8 -12 -9 -34 -1 -38 2 -38 24 0 26 19 32 54
19z m186 -4 c0 -5 -9 -10 -20 -10 -11 0 -20 5 -20 10 0 6 9 10 20 10 11 0 20
-4 20 -10z m-250 -34 c0 -11 -19 -15 -25 -6 -3 5 1 10 9 10 9 0 16 -2 16 -4z
m190 -17 c0 -5 -4 -9 -10 -9 -5 0 -10 7 -10 16 0 8 5 12 10 9 6 -3 10 -10 10
-16z m407 -1 c-3 -8 -6 -5 -6 6 -1 11 2 17 5 13 3 -3 4 -12 1 -19z m-262 -46
c-11 -11 -27 17 -20 35 6 16 8 16 16 -6 5 -13 7 -26 4 -29z m-5 -22 c0 -5 -4
-10 -9 -10 -6 0 -13 5 -16 10 -3 6 1 10 9 10 9 0 16 -4 16 -10z m1823 -477
c-7 -2 -19 -2 -25 0 -7 3 -2 5 12 5 14 0 19 -2 13 -5z"/>
<path d="M4081 8744 c0 -11 3 -14 6 -6 3 7 2 16 -1 19 -3 4 -6 -2 -5 -13z"/>
<path d="M4175 7600 c27 -12 43 -12 25 0 -8 5 -22 9 -30 9 -10 0 -8 -3 5 -9z"/>
<path d="M4355 7600 c4 -6 11 -8 16 -5 14 9 11 15 -7 15 -8 0 -12 -5 -9 -10z"/>
<path d="M4278 7593 c7 -3 16 -2 19 1 4 3 -2 6 -13 5 -11 0 -14 -3 -6 -6z"/>
<path d="M4448 7593 c6 -2 18 -2 25 0 6 3 1 5 -13 5 -14 0 -19 -2 -12 -5z"/>
<path d="M4065 7410 c3 -5 8 -10 11 -10 2 0 4 5 4 10 0 6 -5 10 -11 10 -5 0
-7 -4 -4 -10z"/>
<path d="M2150 7250 c-12 -8 -14 -63 -12 -347 4 -391 7 -508 17 -523 4 -6 3
-30 -1 -53 -9 -49 -7 -188 6 -377 15 -208 16 -254 7 -267 -10 -15 0 -34 16
-32 25 3 37 -2 57 -23 25 -27 26 -48 1 -48 -25 0 -34 -26 -16 -44 8 -8 19 -26
25 -40 5 -15 17 -26 27 -26 10 0 41 -10 70 -22 39 -17 55 -31 63 -52 14 -41
13 -66 -5 -72 -19 -8 -65 22 -65 42 0 8 -7 17 -15 20 -8 4 -15 15 -15 26 0 17
-5 20 -30 16 -16 -3 -30 -1 -30 4 0 4 -11 8 -24 8 -14 0 -28 5 -31 10 -3 6
-11 10 -17 10 -6 0 -4 -8 5 -18 10 -10 17 -24 17 -31 0 -6 7 -25 15 -41 9 -17
11 -30 5 -30 -5 0 -10 -9 -10 -21 0 -11 5 -17 10 -14 9 6 14 -12 12 -40 -1 -5
15 -21 35 -35 19 -14 47 -36 62 -50 30 -29 71 -37 71 -14 0 8 -5 12 -10 9 -6
-3 -18 1 -27 11 -16 16 -16 16 6 9 13 -4 26 -3 30 3 4 6 22 7 46 2 22 -4 31
-8 20 -9 -16 -1 -13 -5 13 -18 18 -9 41 -26 51 -39 21 -27 31 -30 31 -10 0 8
7 16 15 19 11 5 13 0 8 -23 -3 -19 -1 -30 6 -30 6 0 11 5 11 10 0 6 5 10 10
10 18 0 10 -45 -10 -58 -11 -6 -17 -18 -14 -26 3 -7 -7 -23 -21 -35 l-27 -20
31 -32 c17 -17 31 -39 31 -50 0 -10 5 -19 10 -19 19 0 10 -39 -10 -45 -11 -3
-20 -13 -20 -21 0 -8 -9 -14 -20 -14 -17 0 -20 6 -18 27 2 21 -2 28 -17 31
-11 3 -26 13 -33 23 -7 11 -18 17 -23 14 -13 -9 -11 -36 5 -54 23 -26 30 -61
12 -61 -26 0 -28 -20 -4 -40 13 -10 42 -29 65 -41 35 -18 44 -29 49 -58 4 -20
10 -40 14 -46 21 -29 19 -46 -6 -55 -19 -7 -24 -15 -19 -29 7 -22 -7 -62 -29
-83 -11 -12 -13 -23 -6 -44 8 -28 8 -29 10 -4 l2 25 7 -25 c4 -14 14 -24 23
-24 21 2 33 -58 18 -86 -9 -16 -8 -25 0 -36 7 -7 9 -22 5 -31 -12 -28 -12 -77
-1 -91 7 -9 3 -15 -12 -19 -12 -3 -22 -11 -22 -18 0 -16 29 -73 41 -80 5 -4 9
-19 9 -36 0 -23 -5 -29 -22 -30 -17 -1 -18 -3 -6 -6 16 -4 26 -37 27 -88 0
-11 2 -55 4 -97 2 -43 1 -78 -3 -78 -14 0 -19 29 -7 33 9 3 9 8 0 18 -18 19
-23 8 -26 -55 -3 -54 6 -75 16 -38 4 14 6 14 12 -5 4 -13 11 -21 15 -18 10 6
22 -107 12 -114 -5 -3 -12 -26 -16 -51 -4 -28 -15 -51 -28 -61 l-21 -16 29
-14 c21 -10 30 -22 32 -44 2 -23 0 -27 -7 -15 -6 8 -11 10 -11 4 0 -6 6 -17
14 -23 14 -12 11 -57 -6 -77 -4 -6 -6 -18 -3 -26 4 -9 0 -22 -8 -29 -23 -24
-35 -51 -30 -70 3 -11 9 -19 13 -19 12 0 20 -28 14 -45 -4 -8 -10 -12 -15 -9
-5 3 -9 -1 -10 -8 0 -7 -1 -59 -3 -115 -1 -56 -5 -105 -8 -109 -13 -12 -28 8
-28 37 0 29 -13 39 -25 19 -4 -6 -11 -8 -16 -5 -5 4 -12 -2 -15 -12 -3 -10
-10 -26 -15 -35 -7 -14 -5 -18 11 -18 11 0 20 -4 20 -9 0 -11 -29 -23 -40 -16
-4 3 -10 -4 -13 -15 -5 -19 0 -20 96 -20 135 1 140 5 129 98 -4 38 -5 80 0 92
12 32 7 290 -5 318 -8 18 -8 25 2 31 10 6 9 16 -4 47 -8 21 -12 45 -8 53 4 9
8 57 9 106 6 198 6 187 4 273 0 15 0 68 0 117 0 50 0 101 0 115 0 14 -2 165
-4 335 -2 171 -4 423 -3 560 0 138 -1 446 -2 685 -4 959 0 1245 18 1263 9 9
127 11 499 9 268 -1 495 -5 504 -8 10 -3 23 -2 30 3 14 8 22 9 144 13 81 3 82
3 177 -49 53 -28 102 -51 111 -51 8 0 28 -12 45 -26 17 -14 31 -23 31 -19 0 9
92 -65 108 -88 7 -9 26 -24 43 -32 16 -9 29 -19 29 -23 0 -5 21 -31 48 -58 26
-27 54 -63 62 -79 8 -17 18 -32 21 -35 4 -3 18 -28 32 -57 15 -28 31 -54 37
-58 5 -3 10 -16 10 -29 0 -12 4 -26 10 -32 13 -13 50 -131 50 -160 0 -12 6
-51 14 -86 16 -71 19 -200 7 -298 -5 -36 -5 -69 -1 -74 5 -5 0 -18 -11 -29
-12 -13 -19 -35 -19 -58 0 -21 -7 -42 -15 -49 -9 -7 -15 -20 -14 -29 1 -9 -3
-29 -9 -44 -7 -16 -12 -33 -12 -38 0 -5 -4 -9 -9 -9 -9 0 -47 -70 -44 -81 1
-3 -11 -20 -27 -38 -17 -18 -35 -42 -41 -53 -16 -30 -90 -108 -102 -108 -9 0
-36 -23 -112 -97 -19 -18 -42 -33 -52 -33 -11 0 -34 -15 -52 -34 -20 -20 -47
-37 -69 -41 -19 -3 -44 -13 -56 -20 -12 -8 -50 -22 -86 -31 -36 -10 -72 -23
-80 -30 -11 -10 -89 -13 -315 -13 -190 -1 -301 -5 -303 -11 -2 -6 -10 -10 -18
-10 -9 0 -13 4 -10 9 9 14 -163 26 -177 12 -8 -8 -3 -11 20 -11 19 0 33 -6 37
-16 9 -24 -3 -36 -31 -29 -23 5 -24 4 -19 -25 3 -16 9 -44 12 -60 3 -16 12
-30 19 -30 7 0 23 -12 34 -26 16 -21 18 -29 9 -44 -11 -18 -13 -17 -42 7 -35
29 -44 18 -21 -27 13 -25 19 -29 30 -20 7 6 16 7 19 2 8 -13 -4 -22 -29 -22
-21 0 -21 -3 -13 -67 4 -38 6 -75 3 -83 -4 -13 14 -15 125 -16 l130 -1 0 43
c0 32 4 44 15 44 21 0 20 1 -24 67 -22 33 -34 60 -28 62 6 2 13 -2 15 -9 3 -8
18 -26 35 -41 17 -16 27 -34 24 -42 -3 -8 11 -33 33 -58 33 -39 39 -42 54 -30
15 13 18 12 23 -7 4 -19 13 -22 52 -22 26 0 52 5 58 11 8 8 13 8 17 0 10 -16
46 5 46 27 1 13 8 9 28 -15 l27 -31 175 2 c141 2 180 6 200 19 14 8 39 19 55
23 42 10 155 64 155 75 0 5 7 9 15 9 31 0 174 83 285 166 114 85 205 167 268
240 40 47 142 195 142 206 0 4 14 31 32 59 46 75 100 231 130 374 19 94 21
455 3 587 -31 230 -113 453 -226 617 -24 35 -51 73 -59 85 -8 12 -60 68 -116
123 -96 96 -258 214 -364 265 -262 125 -299 131 -825 143 -159 3 -409 11 -555
16 -146 5 -402 12 -569 15 -167 3 -307 7 -311 9 -3 2 -12 0 -20 -5z m415 -950
c-5 -8 -11 -8 -17 -2 -6 6 -7 16 -3 22 5 8 11 8 17 2 6 -6 7 -16 3 -22z m-285
-325 c8 -9 21 -13 32 -9 33 10 108 -52 108 -90 0 -12 -4 -28 -10 -36 -8 -12
-11 -12 -28 3 -10 9 -26 17 -36 17 -26 0 -56 19 -56 35 0 8 -6 18 -12 22 -7 4
-18 23 -25 41 -9 25 -9 32 2 32 7 0 18 -7 25 -15z m294 -77 c22 -43 20 -45 -9
-14 -14 15 -23 32 -20 37 9 14 12 12 29 -23z m-64 -78 c0 -5 -4 -10 -9 -10 -6
0 -13 5 -16 10 -3 6 1 10 9 10 9 0 16 -4 16 -10z m-140 -24 c26 -8 46 -20 48
-30 4 -20 -17 -21 -54 -1 -16 8 -37 15 -46 15 -10 0 -18 7 -18 15 0 18 12 19
70 1z m103 -40 c21 -16 23 -46 3 -46 -17 0 -48 39 -40 52 7 11 16 10 37 -6z
m77 -6 c0 -5 -4 -10 -10 -10 -5 0 -10 5 -10 10 0 6 5 10 10 10 6 0 10 -4 10
-10z m-282 -38 c2 -7 -3 -12 -12 -12 -9 0 -16 7 -16 16 0 17 22 14 28 -4z
m125 -9 c-7 -2 -19 -2 -25 0 -7 3 -2 5 12 5 14 0 19 -2 13 -5z m83 -81 c6 -12
21 -33 33 -46 20 -22 21 -25 6 -40 -18 -18 -38 -11 -70 24 -15 17 -17 23 -6
29 18 11 5 31 -20 31 -24 0 -25 17 -1 23 30 8 46 2 58 -21z m-166 -116 c0 -11
-19 -15 -25 -6 -3 5 1 10 9 10 9 0 16 -2 16 -4z m192 -150 c17 -25 8 -36 -24
-31 -33 6 -48 19 -48 42 0 15 61 6 72 -11z m-163 -69 c17 -7 28 -16 24 -20 -3
-4 3 -7 15 -7 13 0 22 6 22 15 0 22 56 13 82 -12 31 -32 15 -45 -45 -37 -29 4
-68 8 -88 9 -45 3 -84 28 -76 49 8 19 25 20 66 3z m1818 -513 c-3 -3 -12 -4
-19 -1 -8 3 -5 6 6 6 11 1 17 -2 13 -5z m-1583 -26 c8 -31 7 -38 -3 -38 -5 0
-11 14 -13 30 -5 35 7 41 16 8z m54 0 c19 -19 14 -35 -13 -40 -22 -5 -25 -2
-25 23 0 30 17 38 38 17z m712 -78 c0 -5 -9 -10 -21 -10 -11 0 -17 5 -14 10 3
6 13 10 21 10 8 0 14 -4 14 -10z m139 -26 c-41 -30 -48 -30 -23 -1 25 29 36
37 47 30 4 -3 -6 -16 -24 -29z m201 31 c0 -3 -10 -9 -22 -14 -20 -7 -18 -9 20
-16 25 -4 42 -12 42 -20 0 -8 11 -24 24 -37 30 -29 44 -106 21 -114 -9 -4 -24
1 -35 11 -21 19 -45 11 -36 -12 5 -11 1 -13 -17 -8 -17 5 -18 4 -7 -4 24 -16
2 -26 -26 -11 -24 14 -25 14 -5 22 25 9 25 8 7 44 -8 15 -13 31 -10 35 2 4 -5
10 -16 14 -29 9 -29 65 0 65 15 0 22 -9 27 -30 3 -17 12 -30 20 -30 11 0 14 7
9 23 -3 12 -6 28 -6 35 0 7 -14 12 -34 12 -34 0 -52 12 -42 28 6 9 86 15 86 7z
m210 -15 c0 -5 -7 -7 -15 -4 -8 4 -15 8 -15 10 0 2 7 4 15 4 8 0 15 -4 15 -10z
m-623 -42 c13 -12 23 -31 23 -42 0 -16 -3 -18 -9 -7 -7 11 -10 11 -17 0 -4 -8
-3 -14 5 -17 9 -3 8 -9 -4 -22 -9 -10 -17 -32 -17 -49 -1 -18 -5 -34 -10 -37
-14 -9 -37 16 -31 33 4 10 2 14 -4 10 -5 -4 -15 5 -22 20 -11 23 -10 25 3 13
10 -7 16 -8 16 -2 0 6 -14 20 -30 32 -17 12 -27 26 -24 32 4 6 10 6 17 -1 6
-6 24 -11 39 -11 25 0 28 3 22 24 -6 24 1 46 13 46 4 0 17 -10 30 -22z m586
-5 c4 -2 7 -17 7 -34 0 -24 -4 -29 -25 -29 -21 0 -25 5 -25 28 0 15 -6 34 -12
41 -11 10 -7 11 17 5 17 -4 33 -9 38 -11z m-433 -67 c0 -18 52 -56 80 -58 21
-2 26 -5 19 -14 -6 -7 -6 -21 0 -37 8 -21 7 -30 -6 -43 -19 -18 -13 -23 -85
64 -23 27 -31 31 -47 23 -17 -9 -23 -5 -46 35 -36 61 -24 78 40 55 25 -9 45
-20 45 -25z m553 -86 c2 -19 9 -36 16 -38 6 -2 11 -10 11 -18 0 -11 -8 -14
-27 -12 -24 3 -28 8 -31 41 -2 20 1 37 6 37 6 0 8 10 5 23 -4 16 -3 19 5 12 7
-6 13 -26 15 -45z m-243 -30 c0 -5 -4 -10 -10 -10 -5 0 -10 5 -10 10 0 6 5 10
10 10 6 0 10 -4 10 -10z m-440 -69 c-5 -9 -10 -12 -10 -7 0 6 -6 2 -12 -7 -10
-13 -20 -15 -42 -9 -16 5 -31 15 -34 23 -3 11 -2 11 7 -1 9 -13 11 -11 11 7 0
14 12 27 38 41 l37 19 7 -25 c4 -14 3 -32 -2 -41z m290 59 c0 -5 -7 -10 -16
-10 -8 0 -12 5 -9 10 3 6 10 10 16 10 5 0 9 -4 9 -10z m278 -42 c15 -37 -5
-38 -31 -2 -22 29 -15 68 7 43 7 -8 18 -26 24 -41z m-74 11 c-3 -6 -1 -22 7
-35 15 -30 8 -39 -20 -24 -17 9 -21 8 -22 -5 -1 -8 -2 -21 -3 -27 0 -7 -11
-14 -22 -16 -16 -2 -23 4 -28 22 -4 16 -11 23 -19 20 -8 -3 -20 2 -27 11 -11
13 -11 19 2 32 10 10 21 12 30 7 25 -16 68 -12 79 7 5 11 14 19 20 19 6 0 7
-5 3 -11z m279 4 c-8 -3 -11 -14 -7 -29 7 -26 -5 -31 -37 -14 -38 21 -20 48
31 48 14 0 19 -2 13 -5z m-598 -23 c12 -39 -25 -57 -45 -21 -16 30 -12 41 14
41 16 0 27 -7 31 -20z m625 -55 c0 -21 -2 -24 -13 -13 -10 9 -11 16 -3 25 15
17 16 16 16 -12z m-422 -23 c2 -7 -3 -12 -12 -12 -9 0 -16 7 -16 16 0 17 22
14 28 -4z m-1078 -1594 c0 -16 -3 -19 -11 -11 -6 6 -8 16 -5 22 11 17 16 13
16 -11z"/>
<path d="M6490 7180 c0 -5 5 -10 10 -10 6 0 10 5 10 10 0 6 -4 10 -10 10 -5 0
-10 -4 -10 -10z"/>
<path d="M6765 6760 c3 -5 8 -10 11 -10 2 0 4 5 4 10 0 6 -5 10 -11 10 -5 0
-7 -4 -4 -10z"/>
<path d="M2461 5099 c-22 -9 -23 -11 -7 -27 9 -10 16 -24 16 -32 0 -10 3 -10
15 0 12 10 13 15 4 21 -7 4 -9 16 -6 28 3 12 4 21 4 20 -1 0 -13 -5 -26 -10z"/>
<path d="M2280 5040 c0 -5 5 -10 10 -10 6 0 10 5 10 10 0 6 -4 10 -10 10 -5 0
-10 -4 -10 -10z"/>
<path d="M2513 5031 c-14 -23 -5 -35 14 -20 14 12 18 39 5 39 -4 0 -13 -9 -19
-19z"/>
<path d="M2221 4991 c-8 -5 -10 -14 -5 -22 4 -8 7 -28 5 -45 -3 -38 14 -53 28
-25 23 42 2 111 -28 92z"/>
<path d="M2277 4923 c-2 -5 5 -23 14 -41 21 -40 36 -24 17 18 -13 30 -23 37
-31 23z"/>
<path d="M2232 4828 c5 -15 28 -23 28 -10 0 5 -7 13 -16 16 -10 4 -14 1 -12
-6z"/>
<path d="M2290 4820 c0 -5 5 -10 10 -10 6 0 10 5 10 10 0 6 -4 10 -10 10 -5 0
-10 -4 -10 -10z"/>
<path d="M2387 4815 c-4 -9 5 -22 22 -35 49 -34 66 -22 35 25 -18 28 -49 33
-57 10z"/>
<path d="M5672 4818 c-6 -6 -12 -16 -12 -22 0 -5 6 -2 13 8 12 16 17 17 36 6
19 -10 23 -9 19 2 -6 18 -40 22 -56 6z"/>
<path d="M5426 4755 c4 -8 12 -15 20 -15 8 0 14 7 14 15 0 8 -9 15 -20 15 -13
0 -18 -5 -14 -15z"/>
<path d="M5530 4729 c0 -5 10 -9 22 -9 12 0 18 3 14 7 -10 11 -36 12 -36 2z"/>
<path d="M5295 4700 c21 -23 19 -33 -5 -27 -21 6 -23 2 -11 -27 7 -19 8 -18
27 2 31 32 79 34 69 2 -5 -14 -2 -20 9 -20 9 0 16 7 16 15 0 8 7 15 16 15 10
0 14 -6 10 -15 -3 -8 0 -16 7 -16 7 -1 -1 -4 -17 -8 -23 -5 -32 -14 -39 -40
-6 -24 -11 -31 -17 -22 -5 9 -9 10 -14 2 -10 -16 3 -51 19 -51 8 0 11 -7 8
-20 -6 -23 -14 -25 -31 -8 -9 9 -18 9 -37 0 -20 -9 -25 -9 -25 2 0 8 12 17 28
21 l27 7 -22 18 c-37 30 -23 70 24 70 18 0 23 6 23 25 0 27 -17 34 -26 10 -4
-8 -17 -15 -30 -15 -15 0 -24 -6 -24 -15 0 -8 -4 -15 -10 -15 -18 0 -84 -74
-86 -98 -2 -13 -7 -29 -13 -36 -6 -7 -8 -22 -5 -34 5 -16 -3 -30 -30 -55 -38
-36 -46 -57 -21 -57 8 0 15 -4 15 -9 0 -4 -11 -6 -25 -3 -34 6 -32 -16 2 -29
21 -8 28 -7 35 6 13 23 27 18 40 -12 l12 -28 4 28 c2 19 -3 34 -15 44 -17 14
-17 14 6 9 13 -3 30 1 37 9 12 12 21 11 59 -2 37 -12 45 -19 45 -39 0 -16 -6
-25 -17 -26 -10 0 -24 -2 -32 -2 -29 -2 -20 -21 16 -33 38 -12 73 -1 73 23 0
15 31 28 39 16 18 -26 92 -58 77 -33 -8 12 20 22 40 14 11 -4 22 1 30 12 11
15 17 16 26 7 7 -7 21 -12 33 -11 20 0 20 0 0 9 -18 8 -18 9 -2 9 10 1 20 9
24 19 3 9 14 25 24 34 16 16 17 16 22 -2 3 -12 0 -17 -8 -13 -17 6 -14 -22 4
-40 10 -9 14 -8 22 6 6 9 16 17 22 17 7 0 18 5 24 11 12 12 8 21 -36 65 -20
20 -21 24 -7 24 25 0 31 28 10 51 -17 19 -17 20 4 26 12 3 22 12 22 20 0 8 -5
11 -11 8 -13 -9 -49 23 -49 43 0 11 8 13 30 9 28 -6 30 -4 30 23 0 33 -14 40
-25 13 -6 -16 -8 -16 -26 6 -19 24 -18 41 5 41 21 0 5 74 -17 78 -12 3 -17 -3
-17 -22 0 -14 -4 -26 -10 -26 -5 0 -12 -12 -16 -27 -10 -46 -28 -83 -40 -83
-7 0 -14 19 -15 44 -2 24 -1 42 2 40 4 -2 10 7 13 20 3 13 9 31 12 40 4 11 1
16 -10 16 -20 0 -56 -30 -56 -47 0 -7 -9 -13 -20 -13 -11 0 -20 5 -20 10 0 14
-33 13 -48 -2 -9 -9 -12 -7 -12 9 0 26 -25 36 -50 21 -15 -10 -22 -9 -37 4
-10 8 -31 18 -46 20 -26 5 -27 4 -12 -12z m214 -79 c8 -15 7 -20 -5 -25 -27
-10 -34 -7 -34 19 0 30 25 34 39 6z m-59 -75 c0 -3 -4 -8 -10 -11 -5 -3 -10
-1 -10 4 0 6 5 11 10 11 6 0 10 -2 10 -4z m54 -33 c3 -10 9 -24 12 -30 3 -8
-2 -13 -14 -13 -12 0 -23 9 -27 20 -11 35 17 57 29 23z m-74 -33 c0 -5 -4 -10
-10 -10 -5 0 -10 5 -10 10 0 6 5 10 10 10 6 0 10 -4 10 -10z m16 -36 c-7 -18
-17 -18 -42 2 -18 15 -18 15 9 11 22 -3 27 0 28 17 1 18 2 18 6 3 3 -10 2 -25
-1 -33z m184 -44 c0 -4 -7 -10 -15 -14 -10 -4 -15 1 -15 14 0 13 5 18 15 14 8
-4 15 -10 15 -14z m-251 -31 c-5 -11 -7 -29 -4 -39 7 -24 -7 -26 -25 -5 -9 10
-9 15 -1 15 6 0 11 5 11 10 0 6 -9 10 -20 10 -36 0 -22 26 15 27 31 1 34 -1
24 -18z m101 6 c15 0 29 -45 14 -45 -11 0 -54 42 -54 52 0 5 6 6 13 1 6 -4 19
-8 27 -8z m80 -16 c0 -4 -9 -9 -19 -12 -17 -4 -18 -2 -9 19 8 18 14 21 20 12
4 -7 8 -16 8 -19z m-260 -9 c0 -5 -4 -10 -10 -10 -5 0 -10 5 -10 10 0 6 5 10
10 10 6 0 10 -4 10 -10z m117 -32 c-3 -8 -6 -5 -6 6 -1 11 2 17 5 13 3 -3 4
-12 1 -19z m150 -19 c-14 -8 -22 -8 -30 0 -8 8 -3 11 19 11 25 -1 27 -2 11
-11z m170 5 c-3 -3 -12 -4 -19 -1 -8 3 -5 6 6 6 11 1 17 -2 13 -5z m-207 -24
c8 -5 11 -12 7 -17 -5 -4 -11 -2 -15 4 -4 6 -16 13 -27 16 l-20 5 20 1 c11 0
27 -3 35 -9z"/>
<path d="M2170 4627 c0 -27 4 -37 13 -35 18 7 20 31 3 53 -15 19 -15 18 -16
-18z"/>
<path d="M2230 4594 c0 -30 -4 -54 -10 -54 -5 0 -10 -4 -10 -10 0 -16 35 -47
48 -42 7 2 15 -4 18 -12 4 -11 13 -14 26 -10 10 3 26 0 34 -7 19 -15 25 -9 17
20 -4 16 -11 21 -24 18 -14 -4 -19 0 -19 14 0 10 -9 40 -19 68 -11 27 -18 51
-15 54 3 2 -7 7 -21 9 -24 5 -25 4 -25 -48z m22 -86 c-7 -7 -12 -8 -12 -2 0
14 12 26 19 19 2 -3 -1 -11 -7 -17z"/>
<path d="M2340 4610 c0 -5 5 -10 10 -10 6 0 10 5 10 10 0 6 -4 10 -10 10 -5 0
-10 -4 -10 -10z"/>
<path d="M4937 4573 c-4 -3 -7 -11 -7 -17 0 -6 5 -5 12 2 6 6 9 14 7 17 -3 3
-9 2 -12 -2z"/>
<path d="M2503 4515 c0 -22 2 -30 4 -17 2 12 2 30 0 40 -3 9 -5 -1 -4 -23z"/>
<path d="M5031 4534 c0 -11 3 -14 6 -6 3 7 2 16 -1 19 -3 4 -6 -2 -5 -13z"/>
<path d="M2181 4514 c0 -11 3 -14 6 -6 3 7 2 16 -1 19 -3 4 -6 -2 -5 -13z"/>
<path d="M4900 4492 c0 -4 11 -9 25 -10 14 -1 25 3 25 8 0 6 -11 10 -25 10
-14 0 -25 -4 -25 -8z"/>
<path d="M2500 4462 c0 -12 23 -32 37 -32 11 0 11 4 1 20 -13 20 -38 28 -38
12z"/>
<path d="M5080 4430 c0 -5 9 -10 20 -10 11 0 20 5 20 10 0 6 -9 10 -20 10 -11
0 -20 -4 -20 -10z"/>
<path d="M2203 4409 c-39 -25 -43 -43 -8 -37 23 5 25 2 25 -33 0 -32 4 -39 19
-39 22 0 26 4 35 42 4 19 1 32 -13 45 -10 10 -20 23 -22 30 -3 9 -14 6 -36 -8z"/>
<path d="M4951 4414 c0 -11 3 -14 6 -6 3 7 2 16 -1 19 -3 4 -6 -2 -5 -13z"/>
<path d="M4987 4414 c-13 -13 -7 -24 14 -24 11 0 19 5 17 12 -5 14 -22 21 -31
12z"/>
<path d="M4952 4369 c-16 -25 -15 -29 7 -29 24 0 36 -18 32 -47 -2 -18 3 -23
19 -23 17 0 20 4 15 20 -4 11 -2 20 4 20 21 0 11 19 -27 48 -37 29 -39 30 -50
11z"/>
<path d="M2330 4291 c0 -32 12 -81 19 -77 10 6 0 96 -10 96 -5 0 -9 -8 -9 -19z"/>
<path d="M5225 4299 c-11 -16 -1 -19 13 -3 7 8 8 14 3 14 -5 0 -13 -5 -16 -11z"/>
<path d="M2420 4290 c0 -5 5 -10 10 -10 6 0 10 5 10 10 0 6 -4 10 -10 10 -5 0
-10 -4 -10 -10z"/>
<path d="M2372 4246 c-3 -6 0 -12 6 -14 7 -2 12 -10 12 -18 0 -8 5 -14 11 -14
6 0 9 9 6 19 -3 14 -1 18 9 14 8 -3 14 1 14 10 0 17 -48 19 -58 3z"/>
<path d="M2470 4233 c-18 -9 -20 -13 -8 -13 9 0 21 -8 27 -17 9 -17 10 -17 16
-1 4 9 3 23 -2 31 -7 11 -12 11 -33 0z"/>
<path d="M2180 4200 c0 -16 2 -30 4 -30 2 0 6 14 8 30 3 17 1 30 -4 30 -4 0
-8 -13 -8 -30z"/>
<path d="M2230 4221 c0 -6 4 -13 10 -16 6 -3 7 1 4 9 -7 18 -14 21 -14 7z"/>
<path d="M4916 4223 c-11 -11 -6 -23 9 -23 8 0 15 4 15 9 0 13 -16 22 -24 14z"/>
<path d="M5020 4226 c0 -2 7 -6 15 -10 8 -3 15 -1 15 4 0 6 -7 10 -15 10 -8 0
-15 -2 -15 -4z"/>
<path d="M5080 4220 c0 -5 4 -10 9 -10 6 0 13 5 16 10 3 6 -1 10 -9 10 -9 0
-16 -4 -16 -10z"/>
<path d="M5175 4210 c-3 -6 1 -7 9 -4 18 7 21 14 7 14 -6 0 -13 -4 -16 -10z"/>
<path d="M2383 4131 c-10 -15 -9 -20 2 -25 10 -3 15 1 16 12 0 14 2 14 10 -3
8 -18 8 -18 6 4 -3 31 -19 37 -34 12z"/>
<path d="M2475 4123 c4 -10 11 -33 17 -51 5 -20 14 -31 21 -28 7 3 20 9 30 12
16 6 14 9 -12 25 -18 11 -31 27 -31 39 0 12 -7 20 -16 20 -11 0 -14 -5 -9 -17z"/>
<path d="M2303 4053 c-15 -5 -18 -59 -4 -67 5 -3 11 12 13 34 2 22 3 40 3 39
0 0 -6 -3 -12 -6z"/>
<path d="M2170 3992 c0 -35 9 -45 27 -31 19 16 16 32 -7 47 -18 11 -20 10 -20
-16z"/>
<path d="M2330 3947 c0 -7 7 -22 15 -33 14 -19 14 -19 15 1 0 15 2 17 9 6 6
-10 10 -10 16 -1 7 12 -21 39 -42 40 -7 0 -13 -6 -13 -13z"/>
<path d="M2300 3863 c0 -5 7 -17 15 -27 8 -11 15 -28 15 -38 0 -21 16 -24 23
-4 8 21 -4 56 -19 56 -8 0 -14 5 -14 10 0 6 -4 10 -10 10 -5 0 -10 -3 -10 -7z"/>
<path d="M2446 3771 c-4 -7 -5 -15 -2 -18 9 -9 19 4 14 18 -4 11 -6 11 -12 0z"/>
<path d="M2530 3749 c0 -18 -3 -19 -15 -9 -12 10 -16 9 -21 -4 -7 -19 12 -46
32 -46 8 0 14 8 14 18 0 10 5 23 11 29 6 6 8 16 5 22 -12 18 -26 12 -26 -10z"/>
<path d="M2580 3566 c0 -8 5 -18 10 -21 6 -3 10 1 10 9 0 8 -4 18 -10 21 -5 3
-10 -1 -10 -9z"/>
<path d="M2234 3311 c-1 -20 1 -28 3 -18 3 9 9 17 14 17 14 0 11 27 -3 33 -9
3 -13 -7 -14 -32z"/>
<path d="M2290 3316 c0 -8 -8 -22 -17 -32 -13 -13 -18 -35 -19 -77 0 -36 -6
-62 -14 -67 -7 -4 -9 -13 -5 -20 5 -8 12 -7 26 6 10 9 19 21 19 27 0 5 10 18
21 28 14 12 20 26 16 39 -3 11 -2 35 3 54 5 22 4 38 -3 45 -15 15 -27 14 -27
-3z"/>
<path d="M2547 3323 c-10 -9 -9 -53 2 -53 6 0 11 60 5 60 0 0 -4 -3 -7 -7z"/>
<path d="M2590 3270 c0 -5 5 -10 10 -10 6 0 10 5 10 10 0 6 -4 10 -10 10 -5 0
-10 -4 -10 -10z"/>
<path d="M2540 3020 c0 -5 5 -10 10 -10 6 0 10 5 10 10 0 6 -4 10 -10 10 -5 0
-10 -4 -10 -10z"/>
<path d="M2364 3006 c-10 -8 -16 -17 -13 -20 3 -3 14 3 24 14 21 23 17 26 -11
6z"/>
<path d="M1835 2922 c-15 -15 -2 -30 23 -28 32 4 36 29 4 31 -12 1 -24 -1 -27
-3z"/>
<path d="M2510 2856 c0 -9 5 -16 10 -16 6 0 10 4 10 9 0 6 -4 13 -10 16 -5 3
-10 -1 -10 -9z"/>
<path d="M1630 2727 c0 -21 -35 -48 -54 -41 -9 3 -16 2 -16 -4 0 -14 28 -18
95 -11 57 5 64 9 20 13 -14 1 -21 9 -23 29 -3 27 -22 39 -22 14z"/>
<path d="M2040 2690 c0 -11 6 -20 14 -20 9 0 12 7 9 20 -3 11 -9 20 -14 20 -5
0 -9 -9 -9 -20z"/>
<path d="M1455 2680 c-4 -6 5 -10 20 -10 15 0 24 4 20 10 -3 6 -12 10 -20 10
-8 0 -17 -4 -20 -10z"/>
<path d="M2390 2679 c0 -5 9 -9 20 -9 11 0 20 2 20 4 0 2 -9 6 -20 9 -11 3
-20 1 -20 -4z"/>
<path d="M2298 2673 c7 -3 16 -2 19 1 4 3 -2 6 -13 5 -11 0 -14 -3 -6 -6z"/>
<path d="M2898 2342 c-59 -2 -88 -7 -88 -14 0 -9 -3 -9 -12 0 -18 18 -88 16
-88 -3 0 -8 -5 -15 -11 -15 -6 0 -17 7 -25 15 -10 10 -35 15 -70 15 -54 0 -63
-7 -54 -45 1 -5 2 -36 1 -67 -2 -54 -1 -58 21 -59 37 -1 80 -7 85 -13 12 -11
-8 -36 -27 -36 -21 0 -80 -50 -80 -68 0 -5 12 -7 26 -4 24 4 25 3 15 -16 -7
-13 -17 -19 -26 -16 -9 4 -15 0 -15 -7 0 -12 47 -14 258 -14 l257 0 62 -32
c34 -17 65 -28 69 -25 4 4 1 -4 -6 -17 -6 -12 -10 -31 -7 -41 2 -9 0 -25 -5
-34 -12 -21 -85 -56 -117 -56 -14 0 -48 -8 -74 -17 -37 -14 -52 -15 -66 -6
-13 8 -37 9 -82 3 -34 -5 -67 -6 -72 -3 -20 12 -208 11 -212 -1 -2 -6 -6 -79
-8 -163 l-5 -152 217 0 c270 0 313 -5 374 -43 43 -28 47 -33 47 -70 0 -21 -5
-48 -10 -59 -25 -45 -130 -60 -445 -63 l-180 -1 -7 -45 c-4 -25 -4 -68 -1 -96
3 -32 1 -54 -6 -58 -12 -8 -15 -113 -5 -140 5 -14 36 -15 268 -10 251 6 423
20 515 44 133 33 240 118 295 236 24 51 27 69 27 158 0 81 -4 111 -22 151 -21
50 -93 135 -115 135 -6 0 -19 8 -28 19 -16 18 -16 20 11 40 84 62 114 118 121
220 5 76 -12 197 -34 240 -33 64 -106 131 -181 167 -74 36 -76 36 -104 20 -31
-18 -52 -14 -43 8 7 19 -19 27 -106 32 -41 3 -91 6 -110 7 -19 1 -74 1 -122
-1z m262 -79 c0 -22 -11 -37 -29 -41 -9 -2 -11 3 -7 13 3 9 6 23 6 31 0 8 7
14 15 14 8 0 15 -8 15 -17z m-380 -3 c0 -5 -2 -10 -4 -10 -3 0 -8 5 -11 10 -3
6 -1 10 4 10 6 0 11 -4 11 -10z m330 -60 c0 -5 -4 -10 -10 -10 -5 0 -10 5 -10
10 0 6 5 10 10 10 6 0 10 -4 10 -10z m-112 -62 c-6 -18 -28 -21 -28 -4 0 9 7
16 16 16 9 0 14 -5 12 -12z m-353 -88 c3 -5 -1 -10 -9 -10 -9 0 -16 5 -16 10
0 6 4 10 9 10 6 0 13 -4 16 -10z m602 -72 c-3 -8 -6 -5 -6 6 -1 11 2 17 5 13
3 -3 4 -12 1 -19z m-30 -231 c9 -19 7 -30 -9 -55 -24 -38 -38 -41 -38 -8 0 29
19 86 29 86 4 0 13 -11 18 -23z m51 -269 c-6 -18 -28 -21 -28 -4 0 9 7 16 16
16 9 0 14 -5 12 -12z m-428 -483 c0 -16 -35 -21 -44 -6 -8 12 4 21 26 21 10 0
18 -7 18 -15z"/>
<path d="M3697 2343 c-3 -5 -1 -48 3 -98 4 -49 6 -93 3 -97 -2 -4 -5 -36 -6
-72 l-2 -65 35 -5 c19 -3 134 -5 255 -5 257 2 339 -13 422 -77 17 -13 35 -24
39 -24 12 0 84 -83 84 -96 0 -6 9 -32 21 -58 29 -67 25 -220 -8 -285 -12 -25
-23 -53 -23 -61 0 -9 -12 -26 -27 -38 -95 -77 -137 -104 -180 -116 -75 -22
-181 -39 -198 -32 -13 5 -15 45 -15 286 l0 280 -62 2 c-154 3 -329 0 -336 -6
-13 -14 -20 -466 -7 -506 5 -14 3 -25 -6 -30 -10 -7 -10 -22 -1 -75 7 -43 8
-75 1 -91 -10 -28 -12 -127 -3 -162 l6 -22 282 0 c310 0 397 10 527 57 101 38
178 86 263 163 121 110 177 217 203 388 15 99 15 116 0 203 -29 175 -46 224
-114 331 -93 144 -275 259 -450 283 -26 4 -69 13 -95 20 -53 15 -603 22 -611
8z m941 -355 c-4 -29 -38 -38 -38 -10 0 19 11 29 33 31 5 1 7 -9 5 -21z"/>
<path d="M1681 2309 c-7 -21 -15 -29 -25 -26 -8 3 -29 -1 -46 -10 -26 -12 -31
-20 -26 -39 7 -27 -10 -68 -24 -59 -5 3 -12 -7 -16 -22 -4 -15 -11 -34 -17
-40 -6 -9 -6 -17 0 -25 15 -19 12 -48 -4 -48 -7 0 -16 7 -19 15 -7 18 -34 20
-34 3 -1 -24 -30 26 -30 50 0 17 -4 22 -14 19 -17 -7 -15 2 15 60 10 20 19 32
19 25 0 -15 36 -16 45 -2 12 19 -15 39 -44 34 -18 -4 -33 0 -44 11 -16 15 -17
15 -18 -2 -3 -73 4 -180 12 -187 14 -15 11 -26 -6 -26 -8 0 -15 -7 -15 -15 0
-13 32 -15 231 -15 138 0 248 -4 273 -11 45 -12 144 -57 151 -69 3 -4 0 -22
-6 -39 -8 -21 -8 -35 -1 -44 7 -8 7 -17 -2 -29 -19 -26 -90 -59 -122 -56 -16
1 -35 -1 -41 -5 -6 -4 -14 -3 -18 3 -4 6 -12 7 -18 3 -7 -4 -39 -6 -72 -5 -36
2 -55 -1 -47 -6 7 -5 10 -16 6 -25 -7 -20 -20 -22 -27 -4 -4 9 -6 9 -6 -1 -1
-10 -4 -10 -16 2 -22 22 -89 10 -157 -29 -29 -17 -35 -24 -24 -28 23 -9 20
-22 -8 -36 -33 -18 -53 -5 -31 19 15 17 15 19 -2 29 -16 8 -16 13 -5 31 11 17
11 25 0 37 -11 13 -14 12 -30 -7 -20 -25 -24 -80 -6 -98 8 -8 8 -15 -1 -26 -8
-9 -14 -54 -16 -110 -2 -52 -9 -104 -14 -115 -15 -27 -14 -37 5 -56 15 -14 15
-18 0 -40 -19 -29 -21 -56 -4 -73 9 -9 9 -17 -1 -36 -16 -30 -6 -140 15 -157
12 -10 11 -16 -6 -44 -23 -38 -27 -107 -6 -125 11 -8 67 -10 210 -7 107 3 198
7 203 10 5 3 8 34 7 69 -2 65 -5 425 -4 466 0 27 26 39 107 46 161 14 286 41
360 77 47 23 126 84 132 103 2 6 11 20 21 31 34 39 52 122 52 240 0 97 -4 120
-26 175 -15 35 -36 75 -49 88 -40 44 -123 100 -184 125 -58 24 -60 24 -72 6
-9 -15 -8 -19 3 -19 8 0 18 -5 22 -11 10 -17 -12 -33 -33 -24 -10 5 -22 7 -26
6 -5 -1 -6 8 -2 19 5 16 2 23 -14 27 -12 3 -21 12 -21 19 0 19 -10 18 -26 -3
-8 -11 -13 -13 -14 -5 0 6 -9 12 -20 12 -15 0 -20 -7 -20 -29 0 -27 -3 -29
-32 -28 -19 1 -38 -4 -45 -13 -11 -13 -14 -13 -23 0 -9 13 -10 12 -8 -5 5 -31
-30 -32 -38 0 -5 20 -9 23 -20 14 -18 -15 -34 -3 -34 27 0 29 -20 32 -27 3 -9
-32 -24 -1 -17 34 5 25 3 27 -24 27 -25 0 -32 -6 -41 -31z m50 -133 c-10 -12
12 -50 22 -39 4 3 7 -7 6 -23 0 -16 -3 -23 -6 -16 -8 20 -26 14 -58 -19 -37
-38 -61 -48 -102 -42 -40 6 -41 11 -7 38 26 21 26 59 -1 49 -7 -3 -15 4 -18
16 -3 14 -1 20 6 17 14 -5 63 18 90 41 9 8 17 12 17 8 0 -4 7 -1 15 8 8 8 15
20 15 26 0 7 -7 10 -15 6 -23 -8 -18 13 8 34 l22 18 7 -55 c4 -31 4 -61 -1
-67z m299 94 c0 -5 -5 -10 -11 -10 -5 0 -7 5 -4 10 3 6 8 10 11 10 2 0 4 -4 4
-10z m215 -60 c3 -6 -1 -17 -9 -26 -20 -19 -20 -28 -1 -44 9 -8 13 -24 10 -44
-2 -17 -4 -34 -4 -38 -1 -5 -10 -8 -21 -8 -13 0 -20 7 -20 19 0 11 -6 22 -12
24 -10 4 -10 8 -1 14 19 14 28 64 12 74 -11 7 -10 11 6 23 24 18 32 19 40 6z
m-325 -55 c0 -28 -4 -35 -19 -35 -10 0 -21 -7 -25 -15 -3 -8 -14 -15 -24 -15
-12 0 -25 -12 -34 -31 l-15 -30 -6 29 c-3 16 -3 39 0 51 6 22 33 29 34 9 0 -7
5 -3 11 9 6 13 19 25 29 28 11 4 19 13 19 21 0 8 7 14 15 14 10 0 15 -11 15
-35z m34 -21 c13 -5 14 -9 5 -20 -16 -20 -29 -17 -29 6 0 22 1 23 24 14z m336
-46 c0 -16 -3 -19 -11 -11 -6 6 -8 16 -5 22 11 17 16 13 16 -11z m-344 -45
c-11 -11 -17 4 -9 23 7 18 8 18 11 1 2 -10 1 -21 -2 -24z m59 -33 c-3 -5 -12
-10 -18 -10 -7 0 -6 4 3 10 19 12 23 12 15 0z m231 -5 c8 -19 -4 -35 -20 -29
-11 4 -14 19 -7 42 3 8 23 -1 27 -13z m59 -15 c3 -5 1 -10 -4 -10 -6 0 -11 5
-11 10 0 6 2 10 4 10 3 0 8 -4 11 -10z m105 -49 c0 -5 -3 -23 -6 -40 -5 -23
-11 -30 -22 -26 -8 3 -21 0 -28 -6 -22 -18 -17 6 9 46 20 32 47 47 47 26z
m-214 -86 c3 -8 -4 -26 -15 -41 -12 -16 -21 -21 -22 -13 0 8 -5 4 -11 -9 -6
-13 -18 -22 -26 -20 -21 4 -27 28 -8 28 9 0 16 5 16 10 0 6 -9 10 -21 10 -28
0 -19 22 11 27 14 2 29 8 34 13 15 15 36 12 42 -5z m54 -5 c0 -5 -4 -10 -10
-10 -5 0 -10 5 -10 10 0 6 5 10 10 10 6 0 10 -4 10 -10z m-660 -149 c0 -5 -7
-14 -15 -21 -12 -10 -15 -10 -15 2 0 8 3 18 7 21 9 10 23 9 23 -2z m660 -31
c0 -5 -4 -10 -10 -10 -5 0 -10 5 -10 10 0 6 5 10 10 10 6 0 10 -4 10 -10z
m-600 -20 c0 -5 -5 -10 -11 -10 -5 0 -7 5 -4 10 3 6 8 10 11 10 2 0 4 -4 4
-10z m315 0 c10 -17 -5 -33 -19 -21 -7 6 -16 8 -19 4 -4 -3 -7 -1 -7 5 0 9 14
19 32 21 4 1 10 -3 13 -9z m-325 -30 c0 -5 -7 -10 -15 -10 -8 0 -15 5 -15 10
0 6 7 10 15 10 8 0 15 -4 15 -10z m251 -13 c-13 -13 -26 -3 -16 12 3 6 11 8
17 5 6 -4 6 -10 -1 -17z m-201 -77 c0 -5 -4 -10 -10 -10 -5 0 -10 5 -10 10 0
6 5 10 10 10 6 0 10 -4 10 -10z"/>
<path d="M1675 2170 c-4 -6 -14 -9 -23 -8 -11 2 -18 -5 -20 -19 -2 -16 2 -23
12 -23 9 0 16 5 16 10 0 6 12 15 26 20 14 6 22 14 19 20 -8 13 -22 13 -30 0z"/>
<path d="M1760 2330 c0 -5 7 -10 16 -10 8 0 12 5 9 10 -3 6 -10 10 -16 10 -5
0 -9 -4 -9 -10z"/>
<path d="M1426 2315 c-3 -9 -6 -24 -5 -33 0 -9 5 -4 10 12 9 32 6 48 -5 21z"/>
<path d="M6890 2231 c-46 -10 -74 -25 -121 -68 -61 -56 -71 -105 -73 -363 l-1
-215 47 -3 c85 -6 87 -3 82 157 -3 77 0 184 5 238 9 90 13 100 39 124 21 19
46 28 85 33 68 9 115 -8 147 -54 28 -39 22 -92 -13 -128 -21 -20 -37 -24 -128
-30 l-104 -7 -6 -37 c-3 -20 -2 -43 2 -49 10 -16 196 -5 265 15 112 34 170
146 131 252 -14 36 -85 100 -137 122 -40 16 -169 25 -220 13z"/>
<path d="M7434 2216 c-55 -28 -107 -84 -117 -128 -10 -39 -19 -498 -10 -499
128 -12 121 -23 123 206 0 108 3 210 6 228 15 89 46 112 149 112 80 0 121 -29
131 -90 12 -85 -33 -117 -173 -123 l-93 -4 0 -44 c0 -39 3 -44 26 -50 32 -8
174 3 228 17 94 25 156 100 156 189 0 78 -37 133 -121 176 -46 24 -68 28 -154
32 -92 3 -104 1 -151 -22z"/>
<path d="M8335 2230 c-14 -22 -17 -118 -6 -195 10 -77 13 -82 56 -122 29 -27
66 -49 100 -59 l54 -17 3 -120 c3 -135 1 -133 86 -121 l42 6 0 118 0 118 38
12 c62 20 119 62 143 104 20 35 23 55 23 161 l1 120 -62 3 c-60 3 -63 2 -63
-20 0 -13 -3 -66 -6 -118 -5 -86 -8 -97 -31 -116 -53 -45 -185 -47 -228 -4
-17 18 -21 37 -25 138 l-5 117 -57 3 c-32 2 -59 -2 -63 -8z"/>
<path d="M6082 2223 l-42 -4 1 -247 c2 -246 2 -247 26 -284 34 -51 99 -86 187
-103 65 -13 83 -12 146 1 84 17 115 32 152 71 53 56 58 83 58 327 0 141 -4
227 -10 231 -15 9 -92 15 -112 9 -16 -5 -18 -23 -18 -192 0 -103 -4 -214 -8
-247 -6 -54 -10 -61 -47 -87 -35 -25 -47 -28 -96 -24 -77 5 -115 27 -130 74
-6 20 -14 136 -18 257 -7 248 2 226 -89 218z"/>
<path d="M7929 2225 c-4 -3 -5 -114 -3 -247 5 -280 10 -298 98 -353 48 -29 53
-30 170 -30 l121 0 3 43 3 42 -71 0 c-71 0 -128 16 -162 47 -24 21 -29 68 -31
298 l-2 200 -60 3 c-34 2 -63 0 -66 -3z"/>
<path d="M5560 2210 c-58 -16 -70 -23 -87 -49 -36 -54 -45 -77 -46 -123 -1
-56 13 -74 92 -120 56 -32 77 -42 159 -72 70 -26 115 -52 144 -83 25 -27 26
-29 10 -48 -25 -31 -108 -45 -261 -45 -151 0 -161 -4 -161 -57 l0 -33 199 0
c109 0 213 3 231 6 18 4 50 24 71 44 38 36 39 39 39 107 0 55 -4 76 -20 95
-29 37 -104 83 -195 119 -174 68 -195 83 -177 124 17 38 52 46 199 46 74 0
141 3 149 6 9 3 14 20 14 49 l0 44 -167 -1 c-93 -1 -179 -5 -193 -9z"/>
<path d="M8523 1333 c-9 -3 -13 -36 -13 -115 0 -108 0 -109 23 -106 21 3 22 8
25 109 3 108 -2 123 -35 112z"/>
<path d="M6039 1326 c-3 -3 -37 -7 -75 -9 l-69 -3 -3 -62 c-4 -76 -23 -80 -34
-7 -7 52 -12 59 -46 70 -19 6 -25 1 -38 -32 -38 -96 -42 -97 -74 -25 -24 52
-34 62 -62 54 -23 -6 -32 -28 -42 -95 -10 -66 -26 -49 -26 28 0 67 -8 80 -40
70 -18 -6 -20 -15 -20 -87 l0 -80 -32 6 c-17 3 -34 8 -36 11 -3 2 -7 36 -10
75 -3 49 -9 73 -19 77 -21 8 -24 1 -28 -78 -5 -93 0 -114 32 -128 26 -12 195
-17 213 -6 5 3 10 18 11 33 0 15 4 36 8 46 6 16 11 12 29 -27 12 -25 26 -48
32 -52 18 -11 58 22 71 60 7 19 16 35 20 35 4 0 11 -21 16 -47 l8 -48 55 0 55
0 3 85 3 86 34 -4 35 -4 0 -84 0 -84 30 0 30 0 0 84 0 84 31 6 c25 5 30 10 27
28 -2 19 -10 24 -43 26 -23 2 -43 1 -46 -2z"/>
<path d="M6227 1315 c-72 -18 -97 -47 -97 -111 0 -61 7 -68 86 -89 54 -14 60
-14 71 2 17 22 -1 43 -36 43 -30 0 -59 16 -49 26 4 3 26 6 48 6 39 -1 41 1 38
26 -2 20 -8 26 -22 24 -10 -2 -30 -1 -45 3 l-26 7 25 13 c14 8 35 14 48 15 15
0 22 6 22 19 0 28 -9 30 -63 16z"/>
<path d="M6341 1321 c-15 -10 -26 -133 -16 -188 6 -31 9 -33 47 -33 93 0 154
38 164 101 10 60 -45 108 -142 123 -21 3 -45 2 -53 -3z m113 -70 c26 -28 17
-73 -17 -89 -38 -18 -47 -9 -47 54 0 50 2 54 23 54 13 0 32 -9 41 -19z"/>
<path d="M6939 1317 c-14 -7 -34 -18 -43 -26 -12 -10 -20 -11 -24 -4 -25 38
-108 44 -147 10 -24 -20 -27 -29 -28 -107 -2 -81 -1 -85 20 -88 19 -3 23 3 29
36 6 39 7 40 58 48 28 4 56 8 61 8 6 1 11 -15 11 -34 2 -61 3 -61 32 -58 24 3
28 8 32 48 5 41 8 45 34 48 34 4 46 -10 46 -55 0 -40 13 -44 113 -34 4 1 7 17
7 36 0 40 15 51 55 41 19 -5 25 -13 25 -35 0 -37 24 -59 45 -41 11 9 14 24 10
54 -13 99 -11 116 18 116 44 0 51 -13 44 -83 -7 -75 8 -110 40 -91 14 9 19 28
23 90 5 78 5 79 33 82 28 3 29 2 27 -35 -2 -21 -2 -59 -1 -85 1 -46 2 -48 31
-48 29 0 30 2 30 45 0 49 13 58 31 23 22 -43 52 -68 81 -68 l29 0 -3 108 c-3
99 -4 107 -23 107 -17 0 -20 -8 -23 -52 -2 -29 -7 -53 -12 -53 -4 0 -20 20
-34 44 -14 24 -33 47 -43 51 -10 3 -67 9 -126 12 -98 5 -109 4 -123 -13 -11
-14 -17 -15 -20 -6 -6 13 -89 17 -119 6 -19 -8 -45 -55 -46 -86 -1 -15 -6 -6
-16 25 -12 39 -20 50 -50 62 -41 17 -49 17 -84 2z m71 -52 c0 -10 -10 -15 -30
-15 -29 0 -38 9 -23 23 13 13 53 7 53 -8z m198 -3 c4 -13 -45 -28 -56 -17 -8
8 28 37 42 32 5 -2 11 -8 14 -15z m-392 -3 c8 -14 -4 -25 -38 -33 -23 -5 -28
-3 -28 12 0 10 3 22 7 25 10 11 51 8 59 -4z"/>
<path d="M7765 1314 c-56 -20 -75 -46 -75 -104 0 -42 4 -51 28 -69 16 -11 52
-23 81 -27 51 -7 53 -6 49 17 -2 18 -12 25 -47 34 -62 15 -64 33 -4 37 40 3
48 6 48 23 0 16 -9 21 -45 26 -42 5 -44 6 -20 16 14 6 34 12 45 14 12 3 21 14
23 27 4 26 -20 28 -83 6z"/>
<path d="M7927 1319 c-29 -17 -46 -64 -49 -135 -3 -68 -3 -69 24 -72 22 -3 29
2 33 21 4 13 5 33 3 43 -2 13 4 20 18 22 26 4 47 -20 48 -56 1 -25 5 -27 51
-33 46 -6 167 5 185 16 4 3 11 17 14 31 8 32 -12 57 -66 85 -21 11 -38 24 -38
29 0 5 21 10 48 12 40 3 47 6 50 26 3 20 -1 22 -43 22 -62 0 -113 -22 -121
-54 -8 -33 -1 -42 57 -71 27 -14 49 -29 49 -34 0 -5 -25 -11 -56 -13 -66 -4
-76 7 -78 85 -2 38 -7 54 -25 68 -25 21 -76 24 -104 8z m72 -55 c8 -7 -12 -24
-29 -24 -22 0 -34 15 -25 30 6 9 41 5 54 -6z"/>
<path d="M8286 1314 c-3 -9 -6 -51 -6 -94 0 -43 3 -85 6 -94 8 -20 44 -21 45
-1 1 8 3 20 4 25 1 6 3 19 4 31 1 17 7 20 44 17 41 -3 42 -4 47 -43 4 -32 9
-41 28 -43 23 -3 23 -3 20 105 -3 102 -4 108 -25 111 -19 3 -22 -2 -25 -35 -3
-37 -4 -38 -45 -41 -25 -2 -44 1 -44 7 -1 6 -3 16 -4 21 -1 6 -3 19 -4 30 -1
24 -36 27 -45 4z"/>
<path d="M8616 1317 c-15 -11 -18 -29 -20 -108 -1 -88 0 -94 19 -94 15 0 21 8
23 30 4 36 26 55 65 55 49 0 67 16 67 60 0 29 -6 43 -22 54 -27 19 -107 21
-132 3z m92 -59 c3 -14 -3 -18 -27 -18 -29 0 -41 17 -24 34 13 13 48 1 51 -16z"/>
<path d="M0 867 c0 -40 13 -48 29 -18 8 14 6 23 -9 36 -20 18 -20 17 -20 -18z"/>
<path d="M27 806 c-4 -9 -11 -14 -17 -11 -7 4 -10 -128 -10 -394 l0 -401 29 0
30 0 3 86 c2 47 0 88 -4 90 -3 2 -7 59 -7 127 -2 203 -9 297 -22 314 -11 13
-10 17 5 28 10 8 15 18 12 23 -3 5 -8 28 -11 52 -3 23 -8 47 -11 52 -4 6 -1
14 6 18 7 4 10 14 8 21 -3 9 -6 8 -11 -5z m13 -297 c0 -5 -7 -9 -15 -9 -15 0
-20 12 -9 23 8 8 24 -1 24 -14z"/>
<path d="M190 80 c-12 -8 -11 -10 6 -10 12 0 26 -10 32 -22 11 -23 11 -23 11
3 1 16 -6 29 -15 33 -19 7 -16 8 -34 -4z"/>
<path d="M703 69 c9 -5 17 -17 17 -24 0 -15 12 -20 23 -9 7 8 -30 44 -45 44
-7 0 -5 -5 5 -11z"/>
<path d="M312 59 c2 -6 8 -10 13 -10 5 0 11 4 13 10 2 6 -4 11 -13 11 -9 0
-15 -5 -13 -11z"/>
<path d="M486 51 c-3 -5 1 -11 9 -15 9 -3 15 0 15 9 0 16 -16 20 -24 6z"/>
<path d="M132 20 c-12 -19 -10 -20 43 -20 60 0 69 8 28 28 -38 17 -56 15 -71
-8z"/>
<path d="M267 29 c-25 -14 -21 -29 8 -29 15 0 25 6 25 14 0 21 -12 26 -33 15z"/>
<path d="M546 21 c-4 -7 -5 -15 -2 -18 9 -9 19 4 14 18 -4 11 -6 11 -12 0z"/>
<path d="M652 18 c6 -18 28 -21 28 -4 0 9 -7 16 -16 16 -9 0 -14 -5 -12 -12z"/>
<path d="M348 3 c6 -2 18 -2 25 0 6 3 1 5 -13 5 -14 0 -19 -2 -12 -5z"/>
</g>
</svg>
